<svg width="20" height="22" viewBox="0 0 20 22" fill="none" xmlns="http://www.w3.org/2000/svg">
<g clip-path="url(#clip0_1238_3383)">
<path d="M18.1635 4.17445L11.8181 0.506568C10.6944 -0.145419 9.30534 -0.145419 8.1817 0.506568L1.83625 4.17445C0.712612 4.82644 0.0180664 6.02842 0.0180664 7.32875V14.6682C0.0180664 15.9685 0.712612 17.1705 1.83625 17.8225L8.1817 21.494C9.30534 22.146 10.6944 22.146 11.8181 21.494L18.1635 17.8225C19.2872 17.1705 19.9817 15.9685 19.9817 14.6682V7.32875C19.9817 6.02842 19.2908 4.82644 18.1635 4.17445ZM15.0362 11.7288L13.149 15.0033C12.8908 15.4549 12.4108 15.7317 11.8908 15.7317H8.11261C7.59261 15.7317 7.11261 15.4549 6.85443 15.0033L4.96352 11.7288C4.70534 11.2771 4.70534 10.7235 4.96352 10.2718L6.85079 6.9973C7.10898 6.54564 7.58898 6.26882 8.10898 6.26882H11.8835C12.4035 6.26882 12.8835 6.54564 13.1417 6.9973L15.029 10.2718C15.2944 10.7235 15.2944 11.2771 15.0362 11.7288Z" fill="#FE005B"/>
<path d="M15.0364 11.7285L13.1491 15.003C12.8909 15.4546 12.4109 15.7315 11.8909 15.7315H8.11275C7.59275 15.7315 7.11275 15.4546 6.85456 15.003L4.96366 11.7285C4.70547 11.2768 4.70547 10.7232 4.96366 10.2715L6.85093 6.99703C7.10911 6.54538 7.58911 6.26855 8.10911 6.26855H11.8837C12.4037 6.26855 12.8837 6.54538 13.1418 6.99703L15.0291 10.2715C15.2946 10.7232 15.2946 11.2768 15.0364 11.7285Z" fill="#FFF1F8"/>
</g>
<defs>
<clipPath id="clip0_1238_3383">
<rect width="20" height="22" fill="white"/>
</clipPath>
</defs>
</svg>
